<svg xmlns="http://www.w3.org/2000/svg" version="1.1" xmlns:xlink="http://www.w3.org/1999/xlink" viewBox="0 0 200 200"><rect width="200" height="200" fill="url('#gradient')"></rect><defs><linearGradient id="gradient" gradientTransform="rotate(79 0.5 0.5)"><stop offset="0%" stop-color="#60acf3"></stop><stop offset="100%" stop-color="#2964de"></stop></linearGradient></defs><g><g fill="#ffffff" transform="matrix(8.69433962264151,0,0,8.69433962264151,-4.073897166971889,161.82100988783927)" stroke="#db400b" stroke-width="0"><path d="M8.16-14.22L8.16 0L4.86 0L4.86-10.51L1.62-9.56L1.62-12.06L7.86-14.22L8.16-14.22ZM22.04-10.42L22.04-10.42Q22.04-9.38 21.53-8.59Q21.02-7.80 20.12-7.32L20.12-7.32Q21.13-6.83 21.73-5.96Q22.32-5.10 22.32-3.92L22.32-3.92Q22.32-2.01 21.01-0.91Q19.70 0.20 17.39 0.20L17.39 0.20Q15.08 0.20 13.74-0.91Q12.40-2.02 12.40-3.92L12.40-3.92Q12.40-5.06 12.99-5.94Q13.57-6.82 14.65-7.32L14.65-7.32Q13.74-7.80 13.22-8.59Q12.71-9.38 12.71-10.42L12.71-10.42Q12.71-12.28 13.96-13.35Q15.22-14.42 17.36-14.42L17.36-14.42Q19.52-14.42 20.78-13.35Q22.04-12.28 22.04-10.42ZM19.02-4.18L19.02-4.18Q19.02-5.06 18.57-5.53Q18.12-6.01 17.37-6.01Q16.63-6.01 16.17-5.53Q15.71-5.06 15.71-4.18L15.71-4.18Q15.71-3.33 16.18-2.84Q16.64-2.34 17.39-2.34L17.39-2.34Q18.13-2.34 18.57-2.83Q19.02-3.32 19.02-4.18ZM17.36-11.88L17.36-11.88Q16.70-11.88 16.35-11.45Q16.01-11.02 16.01-10.24L16.01-10.24Q16.01-9.48 16.36-9.01Q16.71-8.54 17.39-8.54L17.39-8.54Q18.07-8.54 18.40-9.01Q18.74-9.48 18.74-10.24Q18.74-11.01 18.39-11.45Q18.05-11.88 17.36-11.88Z"></path></g></g></svg>